# xmcd
#
# Track frame offsets:
#	150
#	14775
#	28575
#	44325
#	59625
#	72225
#	87825
#	99300
#	113625
#	133650
#	148050
#	168525
#	178500
#	195900
#	211725
#	226275
#
# Disc length: 3242 seconds
#
# Revision: 2
# Processed by: cddbd v1.5.2PL0 Copyright (c) Steve Scherf et al.
# Submitted via: EasyCDDAExtractor 15.2.5.1
#
DISCID=dd0ca810
DTITLE=陳思安 (5) - 餐廳小唱(台灣版)
DYEAR=1980
DGENRE=Alternative
TTITLE0=你怎麽說
TTITLE1=又是黄昏
TTITLE2=往事只能回味
TTITLE3=誓言
TTITLE4=月朦朧鳥朦朧
TTITLE5=情到濃時反為薄
TTITLE6=小城故事
TTITLE7=難忘初戀情人
TTITLE8=意難忘
TTITLE9=明曰天涯
TTITLE10=好好愛我
TTITLE11=梅蘭梅蘭我愛你
TTITLE12=榕樹下
TTITLE13=葡萄成熟時
TTITLE14=心聲淚痕
TTITLE15=流水年華
EXTD=
EXTT0=
EXTT1=
EXTT2=
EXTT3=
EXTT4=
EXTT5=
EXTT6=
EXTT7=
EXTT8=
EXTT9=
EXTT10=
EXTT11=
EXTT12=
EXTT13=
EXTT14=
EXTT15=
PLAYORDER=
